<svg width="78" height="37" viewBox="0 0 78 37" fill="none" xmlns="http://www.w3.org/2000/svg">
<path d="M0.720039 4.86374e-05H7.03204C8.52004 4.86374e-05 9.66404 0.112049 10.464 0.336049C11.28 0.544049 11.856 0.888049 12.192 1.36805C12.528 1.83205 12.696 2.48805 12.696 3.33605V5.25605C12.696 5.68805 12.52 6.09605 12.168 6.48005C11.832 6.86405 11.432 7.12805 10.968 7.27205V7.39205C11.576 7.45605 12.128 7.72005 12.624 8.18405C13.136 8.63205 13.392 9.13605 13.392 9.69605V12.096C13.392 13.36 12.888 14.256 11.88 14.784C10.872 15.312 9.31204 15.576 7.20004 15.576H0.720039V4.86374e-05ZM7.03204 6.33605C7.62404 6.33605 8.06404 6.28805 8.35204 6.19205C8.64004 6.09605 8.83204 5.94405 8.92804 5.73605C9.04004 5.51205 9.09604 5.19205 9.09604 4.77605V4.00805C9.09604 3.64005 9.04804 3.36805 8.95204 3.19205C8.85604 3.00005 8.65604 2.86405 8.35204 2.78405C8.06404 2.70405 7.60004 2.66405 6.96004 2.66405H4.46404V6.33605H7.03204ZM7.12804 12.912C8.04004 12.912 8.68804 12.808 9.07204 12.6C9.45604 12.392 9.64804 12.056 9.64804 11.592V10.344C9.64804 9.76805 9.49604 9.36005 9.19204 9.12005C8.90404 8.88005 8.38404 8.76005 7.63204 8.76005H4.46404V12.912H7.12804ZM21.6424 15.816C17.5304 15.816 15.4744 14.56 15.4744 12.048V7.87205C15.4744 6.41605 15.9384 5.36005 16.8664 4.70405C17.8104 4.04805 19.2584 3.72005 21.2104 3.72005C23.0504 3.72005 24.3944 4.04005 25.2424 4.68005C26.1064 5.30405 26.5384 6.36805 26.5384 7.87205V10.704H19.0024V11.76C19.0024 12.432 19.2424 12.912 19.7224 13.2C20.2024 13.488 21.0664 13.632 22.3144 13.632C23.4664 13.632 24.7624 13.464 26.2024 13.128V15.36C24.7784 15.664 23.2584 15.816 21.6424 15.816ZM23.2024 8.71205V7.03205C23.2024 6.64805 23.0424 6.36005 22.7224 6.16805C22.4184 5.97605 21.8984 5.88005 21.1624 5.88005C20.3144 5.88005 19.7464 5.97605 19.4584 6.16805C19.1544 6.37605 19.0024 6.66405 19.0024 7.03205V8.71205H23.2024ZM32.5047 15.816C31.4167 15.816 30.6007 15.72 30.0567 15.528C29.5287 15.32 29.1527 14.96 28.9287 14.448C28.7207 13.92 28.6167 13.136 28.6167 12.096C28.6167 11.168 28.7287 10.44 28.9527 9.91205C29.1927 9.38405 29.5687 9.00805 30.0807 8.78405C30.6087 8.54405 31.3287 8.42405 32.2407 8.42405H36.1767V7.63205C36.1767 7.13605 36.1047 6.76805 35.9607 6.52805C35.8327 6.28805 35.5847 6.12005 35.2167 6.02405C34.8647 5.92805 34.3287 5.88005 33.6087 5.88005C32.6167 5.88005 31.2567 5.97605 29.5287 6.16805V3.96005C30.7927 3.80005 32.2727 3.72005 33.9687 3.72005C35.4567 3.72005 36.6007 3.83205 37.4007 4.05605C38.2167 4.28005 38.8007 4.66405 39.1527 5.20805C39.5047 5.75205 39.6807 6.54405 39.6807 7.58405V15.576H36.2487V14.52C35.9767 14.984 35.6087 15.312 35.1447 15.504C34.6807 15.712 33.8007 15.816 32.5047 15.816ZM33.8727 13.632C34.5767 13.632 35.0807 13.608 35.3847 13.56C35.6087 13.528 35.7607 13.48 35.8407 13.416C35.9367 13.352 36.0167 13.248 36.0807 13.104C36.1447 12.992 36.1767 12.824 36.1767 12.6V10.344H33.7767C33.2327 10.344 32.8487 10.384 32.6247 10.464C32.4007 10.528 32.2487 10.672 32.1687 10.896C32.0887 11.104 32.0487 11.48 32.0487 12.024C32.0487 12.552 32.0887 12.92 32.1687 13.128C32.2487 13.336 32.4007 13.472 32.6247 13.536C32.8647 13.6 33.2807 13.632 33.8727 13.632ZM46.7955 15.816C45.3075 15.816 44.2595 15.552 43.6515 15.024C43.0595 14.48 42.7635 13.632 42.7635 12.48V3.96005H46.2675V12C46.2675 12.448 46.3075 12.784 46.3875 13.008C46.4835 13.232 46.6595 13.392 46.9155 13.488C47.1875 13.584 47.5955 13.632 48.1395 13.632C48.8275 13.632 49.3315 13.592 49.6515 13.512C49.9715 13.416 50.1875 13.256 50.2995 13.032C50.4115 12.808 50.4675 12.464 50.4675 12V3.96005H53.9715V15.576H50.5155V14.16C50.2595 15.264 49.0195 15.816 46.7955 15.816ZM62.845 15.816C62.253 15.816 61.757 15.792 61.357 15.744C60.957 15.696 60.557 15.6 60.157 15.456C59.709 15.312 59.341 15.112 59.053 14.856C58.781 14.6 58.557 14.248 58.381 13.8C58.189 13.336 58.093 12.8 58.093 12.192V6.12005H55.741V3.96005H58.093V0.600049H61.597V3.96005H64.789V6.12005H61.597V11.592C61.597 12.152 61.645 12.576 61.741 12.864C61.837 13.136 62.021 13.336 62.293 13.464C62.565 13.576 62.981 13.632 63.541 13.632C63.765 13.632 64.181 13.592 64.789 13.512V15.696C64.037 15.776 63.389 15.816 62.845 15.816ZM70.0984 15.48L65.4664 3.96005H69.2824L71.8984 12.168L74.2744 3.96005H77.8984L71.5384 20.568H67.9864L70.0984 15.48ZM3.91304e-05 34.296L8.11204 23.664H0.240039V21H12.72V23.256L4.60804 33.888H12.864V36.576H3.91304e-05V34.296ZM20.8394 36.816C20.1194 36.816 19.5274 36.792 19.0634 36.744C18.5994 36.696 18.1034 36.6 17.5754 36.456C16.9994 36.296 16.5354 36.072 16.1834 35.784C15.8314 35.48 15.5354 35.056 15.2954 34.512C15.0554 33.984 14.9354 33.344 14.9354 32.592V29.16C14.9354 28.392 15.0554 27.72 15.2954 27.144C15.5354 26.568 15.8474 26.12 16.2314 25.8C16.5674 25.528 17.0074 25.304 17.5514 25.128C18.1114 24.936 18.6554 24.816 19.1834 24.768C19.7914 24.736 20.3434 24.72 20.8394 24.72C21.5754 24.72 22.1594 24.744 22.5914 24.792C23.0394 24.824 23.5274 24.92 24.0554 25.08C24.6314 25.256 25.0954 25.496 25.4474 25.8C25.8154 26.104 26.1274 26.536 26.3834 27.096C26.6234 27.672 26.7434 28.36 26.7434 29.16V32.592C26.7434 33.312 26.6234 33.944 26.3834 34.488C26.1594 35.032 25.8634 35.456 25.4954 35.76C25.1754 36.032 24.7354 36.256 24.1754 36.432C23.6314 36.592 23.0954 36.696 22.5674 36.744C22.0874 36.792 21.5114 36.816 20.8394 36.816ZM20.8394 34.632C21.4954 34.632 21.9914 34.584 22.3274 34.488C22.6634 34.376 22.8954 34.208 23.0234 33.984C23.1674 33.76 23.2394 33.432 23.2394 33V28.608C23.2394 27.968 23.0714 27.52 22.7354 27.264C22.3994 27.008 21.7674 26.88 20.8394 26.88C19.9114 26.88 19.2794 27.008 18.9434 27.264C18.6074 27.52 18.4394 27.968 18.4394 28.608V33C18.4394 33.432 18.5034 33.76 18.6314 33.984C18.7754 34.208 19.0154 34.376 19.3514 34.488C19.6874 34.584 20.1834 34.632 20.8394 34.632ZM29.4745 24.96H32.9305V26.376C33.2025 25.272 34.4425 24.72 36.6505 24.72C38.1385 24.72 39.1785 24.992 39.7705 25.536C40.3785 26.064 40.6825 26.904 40.6825 28.056V36.576H37.1785V28.512C37.1785 28.064 37.1305 27.728 37.0345 27.504C36.9545 27.28 36.7785 27.12 36.5065 27.024C36.2505 26.928 35.8505 26.88 35.3065 26.88C34.6185 26.88 34.1145 26.928 33.7945 27.024C33.4745 27.104 33.2585 27.256 33.1465 27.48C33.0345 27.704 32.9785 28.048 32.9785 28.512V36.576H29.4745V24.96ZM49.5799 36.816C45.4679 36.816 43.4119 35.56 43.4119 33.048V28.872C43.4119 27.416 43.8759 26.36 44.8039 25.704C45.7479 25.048 47.1959 24.72 49.1479 24.72C50.9879 24.72 52.3319 25.04 53.1799 25.68C54.0439 26.304 54.4759 27.368 54.4759 28.872V31.704H46.9399V32.76C46.9399 33.432 47.1799 33.912 47.6599 34.2C48.1399 34.488 49.0039 34.632 50.2519 34.632C51.4039 34.632 52.6999 34.464 54.1399 34.128V36.36C52.7159 36.664 51.1959 36.816 49.5799 36.816ZM51.1399 29.712V28.032C51.1399 27.648 50.9799 27.36 50.6599 27.168C50.3559 26.976 49.8359 26.88 49.0999 26.88C48.2519 26.88 47.6839 26.976 47.3959 27.168C47.0919 27.376 46.9399 27.664 46.9399 28.032V29.712H51.1399Z" fill="#2B7FFF"/>
</svg>
